<svg width="770" height="80" viewBox="0 0 770 80" fill="none" xmlns="http://www.w3.org/2000/svg">
<g opacity="0.8">
<path d="M621.28 79.1973L148.473 79.1973L148.473 0L621.28 -3.77561e-06L621.28 79.1973ZM586.318 50.2305C582.322 50.2305 579.872 51.3265 579.099 55.1299C578.132 59.5133 580.904 60.9316 584.9 60.9316C588.833 60.9316 591.347 59.7066 592.12 55.9678C593.023 51.5197 590.251 50.2305 586.318 50.2305ZM180.46 19.0938L171.692 60.3516L182.136 60.3516L185.359 44.9443L203.023 44.9443L204.699 36.8857L187.164 36.8857L189.163 27.6025L208.245 27.6025L209.985 19.0938L180.46 19.0938ZM220.368 19.0938L211.601 60.3516L222.173 60.3516L225.525 44.4287L234.1 60.3516L247.057 60.3516L236.807 45.3955C247.315 43.7839 249.636 37.8524 250.603 33.2754C251.698 27.8603 251.891 19.0938 235.711 19.0938L220.368 19.0938ZM265.438 19.0938L256.671 60.3516L286.647 60.3516L288.389 51.8418L268.92 51.8418L270.66 43.332L288.26 43.332L289.936 35.2744L272.465 35.2744L274.077 27.6025L293.546 27.6025L295.415 19.0938L265.438 19.0938ZM307.047 19.0938L298.279 60.3516L328.256 60.3516L329.996 51.8418L310.527 51.8418L312.269 43.332L329.867 43.332L331.543 35.2744L314.073 35.2744L315.685 27.6025L335.153 27.6025L337.022 19.0938L307.047 19.0938ZM368.291 19.0938L359.523 60.3516L389.5 60.3516L391.241 51.8418L371.772 51.8418L373.513 43.332L391.112 43.332L392.788 35.2744L375.317 35.2744L376.93 27.6025L396.398 27.6025L398.268 19.0938L368.291 19.0938ZM410.093 19.0938L401.261 60.3516L411.833 60.3516L417.506 33.9209L428.529 60.3516L439.939 60.3516L448.772 19.0937L438.199 19.0937L432.462 45.5889L421.89 19.0938L410.093 19.0938ZM458.858 19.0937L456.989 27.6025L467.368 27.6025L460.47 60.3516L470.849 60.3516L477.876 27.6025L488.255 27.6025L490.06 19.0937L458.858 19.0937ZM500.103 19.0937L491.335 60.3516L501.908 60.3516L505.26 44.4287L513.834 60.3516L526.791 60.3516L516.541 45.3955C527.049 43.7839 529.37 37.8524 530.337 33.2754C531.433 27.8603 531.626 19.0937 515.445 19.0937L500.103 19.0937ZM539.788 19.0937L548.362 47.3936L545.59 60.3516L556.484 60.3516L559.128 48.1025L580.981 19.0937L569.056 19.0937L555.26 38.8203L550.296 19.0937L539.788 19.0937ZM588.704 19.0937L585.609 34.1143L584.127 47.3936L590.831 47.3936L594.764 34.8877L598.052 19.0937L588.704 19.0937ZM234.744 27.4736C240.223 27.4737 240.61 29.9879 240.095 32.3731C239.579 35.1451 237.451 38.0459 231.649 38.0459L226.879 38.0459L229.071 27.4736L234.744 27.4736ZM514.479 27.4736C519.958 27.4736 520.345 29.9879 519.829 32.373C519.313 35.1451 517.186 38.0459 511.384 38.0459L506.613 38.0459L508.806 27.4736L514.479 27.4736Z" fill="white"/>
</g>
<rect opacity="0.8" x="621.285" width="148.475" height="79.1974" fill="white"/>
<rect opacity="0.8" width="148.475" height="79.1974" fill="white"/>
</svg>
