<svg width="1841" height="723" viewBox="0 0 1841 723" fill="none" xmlns="http://www.w3.org/2000/svg">
<g clip-path="url(#clip0_1272_3)">
<path d="M246.6 324.354C190.733 324.354 184.747 323.855 167.288 223.095C141.849 77.3783 128.381 68.3997 108.927 68.3997C92.965 68.3997 84.9839 87.3546 84.9839 144.219C84.9839 217.046 139.355 268.985 139.355 307.893C139.355 318.867 132.87 323.855 123.891 323.855C119.901 323.855 100.946 321.361 87.478 321.361C76.0053 321.361 29.1167 321.86 22.1333 321.86C8.66531 321.86 2.67954 316.872 2.67954 305.898C2.67954 265.494 58.5468 202.643 58.5468 135.241C58.4844 85.297 2.61719 51.8764 2.61719 22.9452C2.61719 10.4748 6.6077 3.99023 24.565 3.99023C32.0472 3.99023 63.4726 6.98312 76.9406 6.98312C88.4133 6.98312 108.865 3.99023 123.33 3.99023C157.25 3.99023 159.744 7.48193 172.214 93.278C190.171 219.042 207.63 225.027 231.074 225.027C238.058 225.027 248.533 220.039 248.533 186.12C248.533 101.259 210.124 38.9073 210.124 19.9523C210.124 9.47719 216.609 3.99023 229.079 3.99023C235.564 3.99023 249.53 4.98786 263.497 4.98786C278.462 4.98786 294.424 3.99023 301.906 3.99023C310.386 3.99023 314.376 10.9736 314.376 18.9547C314.376 45.3918 276.466 109.801 276.466 188.614C276.466 217.545 290.932 261.441 290.932 290.871C290.932 314.315 287.44 324.292 246.538 324.292L246.6 324.354Z" fill="white"/>
<path d="M498.127 7.4827C548.009 7.4827 588.413 3.49219 600.946 3.49219C613.478 3.49219 619.402 12.9697 619.402 23.9436C619.402 39.9057 595.957 72.8274 595.957 133.246C595.957 193.665 632.371 279.461 632.371 305.4C632.371 317.87 621.896 322.858 615.411 322.858C606.931 322.858 588.475 319.367 577.002 319.367C564.033 319.367 544.579 322.858 539.093 322.858C531.111 322.858 525.126 317.371 525.126 308.891C525.126 283.951 574.508 257.514 574.508 204.078C574.508 187.617 567.525 174.149 549.069 174.149C516.147 174.149 491.705 191.608 465.767 191.608C444.318 191.608 436.337 175.646 436.337 157.688C436.337 137.736 445.315 126.762 459.282 126.762C476.741 126.762 499.187 141.726 530.114 141.726C563.534 141.726 571.515 127.261 571.515 100.325C571.515 68.4004 555.553 49.4455 516.147 49.4455C450.304 49.4455 405.847 114.79 405.847 185.684C405.847 232.573 430.787 255.518 473.685 258.511C494.137 259.509 500.123 266.991 500.123 280.958C500.123 308.393 475.681 323.856 420.312 323.856C364.944 323.856 354.469 310.887 354.469 295.423C354.469 275.97 380.407 221.1 380.407 155.194C380.407 94.3388 375.918 46.3902 375.918 21.4495C375.918 11.972 382.402 3.991 394.374 3.991C410.336 3.991 445.253 7.4827 498.19 7.4827H498.127Z" fill="white"/>
<path d="M764.616 233.008C764.616 272.415 774.094 301.845 801.529 301.845C832.455 301.845 837.942 278.899 845.424 190.547C846.921 173.587 854.403 167.601 860.389 167.601C873.358 167.601 874.355 179.573 893.31 201.022C910.769 220.476 918.75 229.953 918.75 243.421C918.75 300.286 855.899 326.723 795.48 326.723C717.166 326.723 674.206 303.778 674.206 243.92C674.206 170.594 770.041 112.669 770.041 65.2819C770.041 52.8116 763.556 46.327 751.086 46.327C716.169 46.327 700.706 101.197 677.76 101.197C668.283 101.197 663.294 96.7073 663.294 87.7286C663.294 82.7404 665.29 66.7784 665.29 56.3033C665.29 44.3317 662.297 28.8685 662.297 21.3862C662.297 11.41 664.292 3.92773 679.755 3.92773C706.193 3.92773 745.599 7.41944 795.044 7.41944C836.446 7.41944 898.797 3.92773 907.838 3.92773C919.81 3.92773 925.297 9.91351 925.297 22.8827C925.297 54.8068 897.862 105.686 877.909 105.686C855.463 105.686 847.981 61.2914 820.546 61.2914C789.619 61.2914 764.679 137.61 764.679 232.946L764.616 233.008Z" fill="white"/>
<path d="M1067.02 47.3873C1067.02 86.7937 1001.68 149.145 1001.68 205.574C1001.68 229.018 1015.65 246.477 1048.07 246.477C1105.43 246.477 1140.91 197.094 1140.91 127.696C1140.91 68.3375 1094.02 38.4086 1094.02 19.3913C1094.02 10.4127 1099.51 3.92808 1110.98 3.92808C1119.96 3.92808 1146.9 4.92571 1166.85 4.92571C1180.82 4.92571 1208.75 3.92808 1227.71 3.92808C1236.68 3.92808 1241.17 9.91386 1241.17 17.8949C1241.17 40.8404 1165.35 84.736 1165.35 146.651C1165.35 224.466 1234.69 265.93 1234.69 298.353C1234.69 312.32 1222.72 325.289 1188.8 325.289C1154.88 325.289 1141.41 318.306 1141.41 297.855C1141.41 286.881 1145.9 274.909 1145.9 262.938C1145.9 253.46 1142.41 245.978 1129.94 245.978C1111.98 245.978 1104.5 260.443 1100.01 277.403C1091.03 310.824 1070.58 327.285 1023.69 327.285C989.272 327.285 947.371 307.831 947.371 270.919C947.371 232.011 986.778 200.087 986.778 150.642C986.778 64.7835 945.875 43.3344 945.875 28.8688C945.875 11.4103 962.835 2.43164 1001.74 2.43164C1045.64 2.43164 1067.09 17.8949 1067.09 47.325L1067.02 47.3873Z" fill="white"/>
<path d="M1385.4 6.48416C1412.83 6.48416 1438.77 4.98772 1462.71 4.98772C1513.59 4.98772 1546.51 35.4154 1546.51 72.8265C1546.51 144.157 1445.69 148.148 1445.69 181.069C1445.69 191.046 1456.17 195.036 1469.13 196.533C1510.04 200.024 1526.5 211.497 1534.48 249.906C1537.97 266.865 1544.95 280.333 1554.93 287.816C1567.9 296.295 1571.39 301.782 1571.39 309.265C1571.39 320.239 1558.92 324.728 1530.49 324.728C1462.15 324.728 1442.2 296.794 1441.2 244.918C1440.7 215.986 1428.23 201.022 1392.82 200.024C1382.84 199.525 1376.85 193.041 1376.85 185.559C1376.85 177.578 1380.84 173.088 1390.32 171.093C1442.2 160.618 1459.16 125.202 1459.16 89.7238C1459.16 50.3175 1443.69 38.3459 1418.26 38.3459C1372.36 38.3459 1340.94 93.2156 1340.94 169.597C1340.94 249.968 1411.27 279.897 1411.27 311.322C1411.27 319.802 1407.78 323.793 1397.3 323.793C1391.82 323.793 1365.38 321.298 1343.93 321.298C1319.99 321.298 1290.06 322.795 1274.6 322.795C1267.61 322.795 1262.62 316.809 1262.62 307.831C1262.62 285.883 1316 236.999 1316 169.098C1316 72.3277 1280.58 36.3507 1280.58 18.8922C1280.58 8.41707 1286.07 3.92773 1295.55 3.92773C1308.02 3.92773 1350.92 6.42181 1385.4 6.42181V6.48416Z" fill="white"/>
<path d="M1588.54 162.177C1588.54 40.404 1628.44 2.99289 1694.35 2.99289C1715.8 2.99289 1751.71 13.468 1775.65 13.468C1801.09 13.468 1808.57 0 1818.05 0C1832.52 0 1838.5 20.9502 1838.5 42.8981C1838.5 76.3186 1825.53 96.2712 1788.62 96.2712C1742.73 96.2712 1699.33 52.8743 1652.88 52.8743C1639.41 52.8743 1626.44 62.8506 1626.44 83.302C1626.44 124.704 1684.31 144.157 1726.77 144.157C1766.67 144.157 1785.13 125.701 1795.11 125.701C1801.59 125.701 1805.08 128.694 1805.08 138.67C1805.08 180.072 1799.1 205.013 1770.17 205.013C1727.77 205.013 1704.32 157.625 1651.88 157.625C1635.92 157.127 1625.95 169.098 1625.95 186.557C1625.95 221.972 1662.36 259.384 1717.73 259.384C1785.07 259.384 1804.52 213.493 1826.03 213.493C1835.51 213.493 1841 222.471 1841 241.426C1841 293.802 1791.12 326.724 1734.69 326.724C1638.85 326.724 1588.47 273.35 1588.47 162.052L1588.54 162.177Z" fill="white"/>
<path d="M593.898 431.225C604.374 431.225 607.366 437.211 607.366 447.187C607.366 471.629 584.92 510.038 564.967 510.038C528.554 510.038 524.563 417.196 464.643 417.196C447.683 417.196 433.717 427.671 433.717 449.12C433.717 518.518 604.374 516.959 604.374 625.264C604.374 678.201 568.459 719.602 487.09 719.602C384.272 719.602 358.832 678.201 358.832 642.286C358.832 612.856 379.782 588.913 409.711 588.913C421.683 588.913 425.174 594.899 427.17 605.873C432.158 636.799 453.607 663.236 517.954 663.236C558.358 663.236 579.308 653.26 579.308 628.818C579.308 604.376 558.857 593.402 504.985 582.927C420.124 567.464 362.261 548.01 362.261 482.603C362.261 429.23 405.159 395.311 471.065 395.311C536.971 395.311 562.847 431.225 593.836 431.225H593.898Z" fill="white"/>
<path d="M768.547 401.296C787.004 401.296 802.966 396.807 813.94 396.807C852.847 396.807 897.242 448.683 897.242 522.071C897.242 561.478 864.32 593.963 864.32 633.868C864.32 653.821 867.313 659.807 867.313 676.766C867.313 709.688 841.873 719.166 761.003 719.166C697.155 719.166 665.667 710.686 665.667 677.265C665.667 670.282 666.665 651.826 666.665 640.852C666.665 617.407 642.223 578.5 642.223 522.57C642.223 443.259 686.118 396.807 726.522 396.807C736.997 396.807 757.948 401.296 768.423 401.296H768.547ZM668.286 503.054C668.286 534.978 697.217 566.902 709.687 598.889C729.64 648.77 750.59 658.747 786.567 658.747C825.973 658.747 842.933 632.309 842.933 603.877C842.933 559.483 796.045 452.175 716.172 452.175C685.245 452.175 668.286 471.629 668.286 503.054Z" fill="white"/>
<path d="M1050.06 442.198C1050.06 481.604 984.719 544.019 984.719 600.385C984.719 623.829 998.686 641.287 1031.11 641.287C1088.47 641.287 1123.95 591.905 1123.95 522.507C1123.95 463.148 1077.06 433.219 1077.06 414.264C1077.06 405.286 1082.55 398.801 1094.02 398.801C1103 398.801 1129.94 399.799 1149.89 399.799C1163.86 399.799 1191.79 398.801 1210.74 398.801C1219.72 398.801 1224.21 404.787 1224.21 412.768C1224.21 435.713 1148.39 479.671 1148.39 541.524C1148.39 619.34 1217.73 660.803 1217.73 693.226C1217.73 707.193 1205.76 720.162 1171.84 720.162C1137.92 720.162 1124.45 713.179 1124.45 692.728C1124.45 681.754 1128.94 669.782 1128.94 657.811C1128.94 648.333 1125.45 640.851 1112.98 640.851C1095.02 640.851 1087.54 655.317 1083.05 672.276C1074.07 705.697 1053.62 722.158 1006.73 722.158C972.311 722.158 930.411 702.704 930.411 665.792C930.411 626.884 969.817 594.96 969.817 545.515C969.817 459.719 928.914 438.207 928.914 423.742C928.914 406.283 945.874 397.305 984.781 397.305C1028.68 397.305 1050.13 412.768 1050.13 442.198H1050.06Z" fill="white"/>
<path d="M1262.62 399.3C1272.1 399.3 1282.08 401.296 1292.05 401.296C1304.02 400.797 1315.5 398.801 1323.98 398.801C1332.46 398.801 1335.95 404.787 1335.95 413.766C1335.95 421.747 1332.96 432.222 1332.96 442.697C1332.96 449.681 1335.45 458.659 1346.42 458.659C1373.86 458.659 1406.28 395.809 1464.7 395.809C1496.13 395.809 1520.57 416.26 1521.07 452.175C1521.07 531.486 1448.24 553.434 1448.24 603.378C1448.24 629.316 1470.19 634.803 1484.66 634.803C1504.11 634.803 1515.09 624.328 1523.07 615.848C1528.05 610.86 1532.04 606.87 1536.04 606.87C1543.02 606.87 1548.01 616.846 1548.01 633.307C1548.01 671.217 1533.04 719.165 1478.67 719.165C1433.28 719.165 1411.33 694.224 1411.33 650.828C1411.33 601.944 1442.76 567.463 1442.26 509.102C1442.76 479.672 1431.28 465.705 1399.86 465.705C1358.96 465.705 1321.55 516.584 1321.55 586.48C1321.55 648.895 1388.39 678.824 1388.39 701.27C1388.39 715.237 1380.41 721.722 1315.06 721.722C1257.7 721.722 1250.21 717.232 1250.21 702.268C1250.21 676.329 1297.1 636.424 1297.1 582.49C1297.1 517.145 1245.23 448.745 1245.23 419.814C1245.23 405.847 1253.71 399.363 1262.68 399.363L1262.62 399.3Z" fill="white"/>
<path d="M1737.68 394.312C1807.51 394.312 1840 438.707 1840 508.105C1840 581.929 1802.09 644.343 1802.09 691.731V705.697C1802.09 712.182 1798.1 720.662 1786.63 720.662C1775.15 720.662 1744.72 713.679 1715.79 713.679C1675.39 713.679 1615.97 721.66 1600.01 721.66C1589.53 721.66 1581.55 716.173 1581.55 707.194C1581.55 684.747 1612.98 617.407 1612.98 543.52C1612.98 473.686 1568.08 435.215 1568.08 414.764C1568.08 405.286 1573.07 398.802 1586.04 398.802C1607.99 398.802 1643.9 401.795 1672.83 401.795C1691.79 401.795 1712.74 394.312 1737.68 394.312ZM1635.92 552.998C1635.92 632.309 1665.85 665.792 1725.71 665.792C1773.59 665.792 1788.56 648.833 1788.56 567.027C1788.56 490.147 1751.65 458.223 1704.26 458.223C1672.33 458.223 1635.92 472.19 1635.92 553.06V552.998Z" fill="white"/>
<path d="M74.387 407.969C84.9245 407.969 94.0902 405.412 100.388 405.412C122.647 405.412 148.087 435.092 148.087 477.117C148.087 499.688 129.257 518.269 129.257 541.09C129.257 552.5 131.002 555.929 131.002 565.656C131.002 584.487 116.412 589.911 70.1471 589.911C33.6089 589.911 15.5892 585.048 15.5892 565.906C15.5892 561.915 16.1504 551.315 16.1504 545.08C16.1504 531.675 2.18359 509.353 2.18359 477.366C2.18359 431.974 27.3114 405.412 50.4439 405.412C56.4297 405.412 68.4636 407.969 74.4494 407.969H74.387ZM16.961 466.268C16.961 484.537 33.5466 502.806 40.6547 521.075C52.0651 549.632 64.099 555.368 84.6751 555.368C107.246 555.368 116.973 540.217 116.973 523.943C116.973 498.503 90.0997 437.149 44.3958 437.149C26.6879 437.149 16.961 448.248 16.961 466.268Z" fill="white"/>
<path d="M70.0834 592.03C35.1041 592.03 13.4056 587.665 13.4056 565.967C13.4056 564.159 13.5303 561.041 13.655 557.612C13.8421 553.372 13.9668 548.571 13.9668 545.142C13.9668 540.216 11.7845 533.544 9.29042 525.812C5.11285 513.093 0 497.193 0 477.427C0 431.038 25.6266 403.354 50.3803 403.354C53.5602 403.354 58.1743 404.039 62.6636 404.663C67.0282 405.286 71.5175 405.91 74.3234 405.91C80.1221 405.91 85.5467 405.099 90.2854 404.413C94.0889 403.852 97.3935 403.354 100.324 403.354C123.893 403.354 150.143 433.656 150.143 477.178C150.143 488.9 145.28 499.562 140.603 509.85C135.802 520.263 131.313 530.177 131.313 541.151C131.313 546.95 131.749 550.691 132.186 554.245C132.622 557.674 132.996 560.917 132.996 565.718C132.996 588.164 112.67 592.092 70.0211 592.092L70.0834 592.03ZM50.3803 407.531C27.6842 407.531 4.23992 433.656 4.23992 477.365C4.23992 496.445 9.29042 511.97 13.3433 524.441C16.0868 532.858 18.2067 539.468 18.2067 545.079C18.2067 548.571 18.0197 553.434 17.895 557.737C17.7703 561.104 17.6456 564.159 17.6456 565.967C17.6456 582.116 31.363 587.853 70.0834 587.853C115.663 587.853 128.819 582.864 128.819 565.718C128.819 561.166 128.445 558.048 128.008 554.744C127.572 551.065 127.073 547.199 127.073 541.151C127.073 529.242 131.999 518.455 136.738 508.105C141.476 497.754 145.903 487.965 145.903 477.178C145.903 437.398 121.835 407.593 100.324 407.593C97.7677 407.593 94.5877 408.03 90.909 408.591C85.9832 409.339 80.4339 410.15 74.3234 410.15C71.2058 410.15 66.5294 409.464 62.0401 408.84C57.6754 408.217 53.1861 407.593 50.3179 407.593L50.3803 407.531ZM84.6738 557.487C64.0977 557.487 50.692 551.813 38.7205 521.884C36.1641 515.4 32.3606 508.728 28.6195 502.244C21.8855 490.521 14.9021 478.425 14.9021 466.204C14.9021 446.626 25.9384 434.966 44.4569 434.966C90.909 434.966 119.092 496.757 119.092 523.88C119.092 539.343 110.113 557.425 84.6738 557.425V557.487ZM44.3945 439.268C28.3077 439.268 19.0797 449.12 19.0797 466.266C19.0797 477.365 25.7513 488.963 32.2359 500.186C36.0394 506.795 39.9675 513.591 42.5863 520.325C53.8096 548.321 65.0953 553.247 84.6114 553.247C106.871 553.247 114.79 538.096 114.79 523.942C114.79 498.066 88.1655 439.206 44.3321 439.206L44.3945 439.268Z" fill="white"/>
<path d="M276.592 414.267C291.993 414.267 297.169 403.979 303.154 403.979C311.135 403.979 313.692 416.574 313.692 426.238C313.692 447.375 306.521 459.97 286.257 459.97C260.568 459.97 229.392 434.282 206.571 434.282C193.415 434.282 187.991 440.267 187.991 449.433C187.991 474.311 239.68 486.283 255.954 486.283C280.209 486.283 289.063 477.117 295.672 477.117C299.663 477.117 302.843 479.674 302.843 487.966C302.843 506.797 297.106 521.699 278.276 521.699C259.446 521.699 238.308 494.264 220.85 494.264C213.43 494.264 209.689 499.127 209.689 507.42C209.689 546.827 272.789 558.237 272.789 579.935C272.789 585.36 269.36 589.35 260.506 589.35C247.1 589.35 229.392 587.605 213.118 587.916C198.84 587.916 189.674 588.789 181.444 588.789C176.58 588.789 174.273 586.794 174.273 583.053C174.273 581.058 175.707 577.628 178.575 575.072C188.302 566.779 196.844 551.378 196.844 538.534C196.844 500 170.844 462.277 170.844 436.838C170.844 416.574 183.688 406.597 205.387 406.597C223.967 406.597 255.954 414.329 276.468 414.329L276.592 414.267Z" fill="white"/>
<path d="M260.63 591.47C254.706 591.47 247.972 591.158 240.864 590.784C231.761 590.347 222.346 589.911 213.242 590.035C205.137 590.035 198.777 590.347 193.165 590.534C188.863 590.721 185.122 590.908 181.505 590.908C173.15 590.908 172.277 585.421 172.277 583.052C172.277 580.683 173.836 576.568 177.265 573.512C187.304 564.97 194.849 549.943 194.849 538.533C194.849 517.645 186.93 496.632 180.009 478.176C174.272 463.025 168.91 448.622 168.91 436.899C168.91 416.012 181.942 404.539 205.573 404.539C214.801 404.539 226.897 406.347 239.679 408.28C252.773 410.213 266.304 412.27 276.654 412.27C285.508 412.27 290.683 408.654 294.861 405.724C297.729 403.728 300.285 401.982 303.216 401.982C312.569 401.982 315.873 414.577 315.873 426.362C315.873 450.492 306.209 462.152 286.319 462.152C272.601 462.152 257.699 455.231 243.296 448.559C229.89 442.324 217.233 436.463 206.633 436.463C196.033 436.463 190.172 440.703 190.172 449.494C190.172 471.941 239.617 484.224 256.016 484.224C271.541 484.224 280.395 480.483 286.817 477.74C290.309 476.243 293.053 475.121 295.734 475.121C299.163 475.121 304.962 476.805 304.962 488.09C304.962 511.846 295.983 523.88 278.275 523.88C267.426 523.88 256.826 516.398 246.601 509.165C237.372 502.618 228.643 496.508 220.849 496.508C214.863 496.508 211.808 500.249 211.808 507.544C211.808 528.993 231.761 541.9 249.344 553.186C263.061 562.04 274.908 569.646 274.908 580.059C274.908 583.551 273.474 591.594 260.505 591.594L260.63 591.47ZM216.983 585.796C224.964 585.796 233.133 586.17 241.114 586.606C248.159 586.98 254.831 587.292 260.692 587.292C270.855 587.292 270.855 581.805 270.855 579.997C270.855 571.891 259.881 564.845 247.224 556.677C229.641 545.329 207.755 531.238 207.755 507.482C207.755 497.817 212.556 492.206 221.036 492.206C230.14 492.206 239.43 498.752 249.219 505.673C258.946 512.532 268.985 519.64 278.462 519.64C293.551 519.64 300.909 509.29 300.909 488.028C300.909 479.299 297.23 479.299 295.858 479.299C294.05 479.299 291.619 480.296 288.626 481.606C282.266 484.349 272.539 488.464 256.14 488.464C239.742 488.464 186.057 476.306 186.057 449.494C186.057 443.072 188.738 432.285 206.758 432.285C218.293 432.285 231.387 438.334 245.229 444.756C259.258 451.24 273.724 457.974 286.506 457.974C304.027 457.974 311.821 448.247 311.821 426.362C311.821 416.635 309.202 406.222 303.341 406.222C301.72 406.222 299.787 407.532 297.355 409.215C292.928 412.27 286.88 416.51 276.716 416.51C265.992 416.51 252.337 414.453 239.118 412.458C226.461 410.587 214.489 408.779 205.635 408.779C190.858 408.779 173.212 413.642 173.212 436.962C173.212 447.998 178.45 461.965 184.062 476.742C191.17 495.572 199.213 516.959 199.213 538.595C199.213 552.999 189.673 568.711 180.196 576.755C177.764 578.937 176.642 581.805 176.642 583.114C176.642 584.424 176.642 586.731 181.692 586.731C185.246 586.731 188.987 586.544 193.165 586.357C198.839 586.107 205.261 585.858 213.367 585.858C214.614 585.858 215.861 585.858 217.108 585.858L216.983 585.796Z" fill="white"/>
</g>
<defs>
<clipPath id="clip0_1272_3">
<rect width="1841" height="722.096" fill="white"/>
</clipPath>
</defs>
</svg>
