<svg width="2095" height="1900" viewBox="0 0 2095 1900" fill="none" xmlns="http://www.w3.org/2000/svg">
<path d="M112.319 55.9412C101.029 -5.05727 136.011 -9.7501 199.641 11.449C355.555 63.3755 624.722 275.72 646.258 391.987C685.491 604.092 98.0257 430.189 162.536 778.943C180.831 877.755 262.723 981.368 399.475 1026.93C841.75 1174.26 648.331 177.253 1338.67 407.232C1675.98 519.593 1978.72 816.81 2066.35 1290.44C2177.1 1889.03 1940.45 1949.26 1711.38 1872.94C1523.68 1810.42 1348.44 1637.51 1316.17 1463.18C1303.28 1393.43 1337.6 1385.75 1405.47 1397.47C1597.39 1434.18 1742.83 1365.35 1673.5 990.529C1629.94 755.125 1543.79 611.943 1387.86 559.958C1228.76 506.954 1183.96 603.814 1175.28 895.407C1168.03 1356.57 1106.35 1652.27 689.559 1513.45C349.178 1400.04 86.6056 1078.13 15.6676 694.56C-56.4476 305.097 145.646 236.134 112.319 55.9412Z" fill="#149F81"/>
</svg>
